<?xml version="1.0" encoding="utf-8"?>
<!-- Generator: Adobe Illustrator 24.2.0, SVG Export Plug-In . SVG Version: 6.00 Build 0)  -->
<svg version="1.1" id="Layer_1" xmlns="http://www.w3.org/2000/svg" xmlns:xlink="http://www.w3.org/1999/xlink" x="0px" y="0px"
	 viewBox="0 0 1000 1000" style="enable-background:new 0 0 1000 1000;" xml:space="preserve">
<style type="text/css">
	.st0{fill:#49C8F5;}
	.st1{fill:#010101;}
	.st2{fill:#20A0DB;}
</style>
<g>
	<path class="st0" d="M273.2,412.5H83.4v175.1L273.2,412.5z"/>
	<path class="st1" d="M178.3,412.5H83.4V500L178.3,412.5z"/>
	<path class="st2" d="M538.2,450.5l-24.8,99h43.8l24.8-99H538.2z M432,450.5l-56.3,99h28.9L414,533h40.2l3,16.5h42.7l-18.2-99H432z
		 M438.2,507.9h-10l16.2-28.6l5.3,28.6H438.2z M738,450.5l-24.7,99h43.8l24.7-99H738z M718.5,450.5h-44.8l-37.5,32.4l8.2-32.4h-41.9
		l-24.7,99h41.8l8.5-34.2l22.4,34.2h50.6l-37.5-51.9L718.5,450.5z M339.1,450.5l-11.3,0H273l-24.7,99h54.4l21.5,0
		c30.3,0,60.1-22.5,60.1-57.1C384.3,451.8,339.1,450.5,339.1,450.5 M341.3,495.5c0,0-2.8,32.2-30.3,32.2h-15.5l13.7-53.4h14.1
		C328.3,474.3,342.9,475.6,341.3,495.5 M886.3,450.5l-14.6,58.3l-19.4-58.3h-48.7l-24.7,99.1h30.3l14.7-58.8l19.5,58.8h48.5
		l24.8-99.1H886.3z"/>
</g>
</svg>
